<?xml version="1.0" encoding="iso-8859-1"?>
<!-- Uploaded to: SVG Repo, www.svgrepo.com, Generator: SVG Repo Mixer Tools -->
<!DOCTYPE svg PUBLIC "-//W3C//DTD SVG 1.1//EN" "http://www.w3.org/Graphics/SVG/1.1/DTD/svg11.dtd">
<svg fill="#000000" width="56" height="56" viewBox="0 0 56 56" version="1.1" id="Capa_1" xmlns="http://www.w3.org/2000/svg" xmlns:xlink="http://www.w3.org/1999/xlink" 
	  xml:space="preserve">
<path d="M102.143,188.22c-0.416,0-0.49,0-0.906,0c-6.731,0-72.131-0.391-88.937-15.326C0.659,162.548-2.741,147.864,2.194,129.251
	c3.952-14.904,21.74-37.263,25.562-41.949V70.029c0-22.346,18.18-40.525,40.525-40.525h16.961c-0.575-1.273-0.896-2.686-0.896-4.172
	c0-5.609,4.563-10.172,10.172-10.172c2.796,0,5.331,1.134,7.172,2.965c1.841-1.832,4.376-2.965,7.172-2.965
	c5.608,0,10.172,4.563,10.172,10.172c0,1.486-0.32,2.898-0.896,4.172h16.961c22.346,0,40.525,18.179,40.525,40.525v17.272
	c3.821,4.686,21.609,27.045,25.562,41.949c4.936,18.614,1.535,33.297-10.106,43.644C174.275,187.828,108.882,188.22,102.143,188.22z
	 M33.039,90.322c-0.775,0.937-21.103,25.596-25.046,40.466c-4.368,16.474-1.655,28.779,8.294,37.62
	c12.797,11.373,64.5,13.812,84.521,13.812c0.298,0,0.587,0,0.871-0.001l0,0c0.004,0,0.007,0,0.011,0c0.001,0,0.001,0,0.001,0
	c0.004,0,0.008,0,0.011,0c0.275,0.001,0.561,0.001,0.851,0.001c20.008,0,71.744-2.439,84.541-13.812
	c9.949-8.841,12.662-21.146,8.294-37.62c-3.829-14.437-23.069-38.064-24.925-40.319c-0.207-0.211-0.385-0.454-0.523-0.725
	l-5.244-10.233c-2.111-4.119-3.488-8.217-4.094-12.18c-1.972-12.9-13.316-22.627-26.39-22.627H69.653
	c-13.074,0-24.419,9.728-26.39,22.627c-0.603,3.94-2.007,7.966-4.174,11.963l-0.592,1.092c-0.003,0.005-0.006,0.01-0.009,0.016
	l-5.096,9.403C33.292,89.993,33.173,90.166,33.039,90.322z M68.281,35.504c-19.037,0-34.525,15.488-34.525,34.525v6.515l0.059-0.108
	c1.837-3.389,3.021-6.756,3.518-10.011c2.415-15.804,16.31-27.721,32.321-27.721h64.559c16.011,0,29.905,11.917,32.321,27.721
	c0.468,3.067,1.508,6.269,3.092,9.529v-5.925c0-19.037-15.488-34.525-34.525-34.525H68.281z M108.862,21.161
	c-2.301,0-4.172,1.872-4.172,4.172s1.871,4.172,4.172,4.172s4.172-1.872,4.172-4.172S111.163,21.161,108.862,21.161z M94.518,21.161
	c-2.301,0-4.172,1.872-4.172,4.172s1.871,4.172,4.172,4.172s4.172-1.872,4.172-4.172S96.819,21.161,94.518,21.161z M62.423,172.334
	c-0.112,0-0.225-0.006-0.338-0.019c-34.854-3.909-45.944-8.543-47.443-29.905c-1.386-19.719,29.881-53.074,31.212-54.484
	c1.14-1.205,3.037-1.258,4.241-0.122c1.204,1.137,1.259,3.036,0.122,4.241c-8.568,9.078-30.587,35.749-29.591,49.945
	c1.094,15.575,6.46,20.362,42.127,24.362c1.646,0.185,2.832,1.669,2.647,3.316C65.228,171.201,63.929,172.334,62.423,172.334z"/>
</svg>